# xmcd
#
# Track frame offsets: 
#        150
#        16084
#        34778
#        51534
#        66446
#        83108
#        97024
#        114169
#        128226
#        146559
#        161247
#        176914
#        194053
#        210858
#        232686
#        246285
#
# Disc length: 3546 seconds
#
# Revision: 0
# Processed by: cddbd v1.5.2PL0 Copyright (c) Steve Scherf et al.
# Submitted via: ExactAudioCopy v1.0b2
#
DISCID=e10dd810
DTITLE=Rachel Williams - Lonely At The Bottom
DYEAR=2007
DGENRE=Country
TTITLE0=That's Why I Picked This Guitar
TTITLE1=How Does It Feel
TTITLE2=Something Worth Saving
TTITLE3=The Only Thing Harder
TTITLE4=Final Goodbye
TTITLE5=Lonely At The Bottom
TTITLE6=Sad Songs
TTITLE7=On My Way To You
TTITLE8=If Nobody Moves
TTITLE9=Firestarter
TTITLE10=Can't See The Train
TTITLE11=Lean
TTITLE12=Uphill
TTITLE13=Kill Me In The Morning
TTITLE14=Rain On The Wndshield
TTITLE15=World Famous
EXTD=
EXTT0=
EXTT1=
EXTT2=
EXTT3=
EXTT4=
EXTT5=
EXTT6=
EXTT7=
EXTT8=
EXTT9=
EXTT10=
EXTT11=
EXTT12=
EXTT13=
EXTT14=
EXTT15=
PLAYORDER=
